<?xml version="1.0" encoding="UTF-8"?>
<svg width="100px" height="94px" viewBox="0 0 100 94" version="1.1" xmlns="http://www.w3.org/2000/svg" xmlns:xlink="http://www.w3.org/1999/xlink" xmlns:sketch="http://www.bohemiancoding.com/sketch/ns">
    <title>Slice 1</title>
    <description>Created with Sketch (http://www.bohemiancoding.com/sketch)</description>
    <defs></defs>
    <g id="Page-1" stroke="none" stroke-width="1" fill="none" fill-rule="evenodd" sketch:type="MSPage">
        <g id="noun_850688_cc" sketch:type="MSLayerGroup" transform="translate(0.000000, 1.000000)" fill="#000000">
            <path d="M7.43,53 C8.07912197,56.116656 9.94009127,58.847646 12.6032921,60.591855 C15.266493,62.336064 18.5136373,62.9505287 21.63,62.3 L23.83,61.84 L25.48,69.77 C25.8781099,71.6734945 27.3875563,73.1473781 29.3,73.5 C29.596857,73.5546143 29.8981642,73.5813971 30.2,73.58 C31.8137431,73.5766455 33.3173279,72.7609508 34.2,71.41 L43.12,57.8 L66.57,52.91 C69.686656,52.260878 72.417646,50.3999087 74.161855,47.7367079 C75.906064,45.073507 76.5205287,41.8263627 75.87,38.71 L69.69,9.08 C69.040878,5.96334401 67.1799087,3.232354 64.5167079,1.48814498 C61.853507,-0.256064034 58.6063627,-0.870528729 55.49,-0.22 L10.55,9.16 C7.43334401,9.80912197 4.702354,11.6700913 2.95814498,14.3332921 C1.21393597,16.996493 0.599471271,20.2436373 1.25,23.36 L7.43,53 Z M11.57,14.07 L56.52,4.68 C60.3028919,3.89159994 64.0090833,6.31763347 64.8,10.1 L71,39.73 C71.3748967,41.5494745 71.011178,43.4433516 69.9889522,44.994509 C68.9667263,46.5456664 67.3698385,47.6268747 65.55,48 L41.08,53.1 C40.4309301,53.2361777 39.8625669,53.624679 39.5,54.18 L30.29,68.28 L28.22,58.36 C28.0859148,57.7013282 27.6922361,57.124401 27.127792,56.7593938 C26.5633479,56.3943866 25.8756977,56.2720545 25.22,56.42 L20.57,57.42 C16.8008089,58.1835745 13.1214763,55.763431 12.33,52 L6.15,22.34 C5.76842217,20.5218505 6.12523262,18.6265882 7.14183964,17.0716672 C8.15844666,15.5167461 9.75146012,14.4297131 11.57,14.05 L11.57,14.07 Z M19.57,25.24 C19.4220545,24.5843023 19.5443866,23.8966521 19.9093938,23.332208 C20.274401,22.7677639 20.8513282,22.3740852 21.51,22.24 L50.65,16.16 C51.9597462,15.9722385 53.188982,16.8375107 53.4540757,18.1338189 C53.7191694,19.430127 52.9283083,20.708507 51.65,21.05 L22.55,27.16 C21.8943023,27.3079455 21.2066521,27.1856134 20.642208,26.8206062 C20.0777639,26.455599 19.6840852,25.8786718 19.55,25.22 L19.57,25.24 Z M55.57,27.5 C55.7179455,28.1556977 55.5956134,28.8433479 55.2306062,29.407792 C54.865599,29.9722361 54.2886718,30.3659148 53.63,30.5 L24.5,36.52 C23.1902538,36.7077615 21.961018,35.8424893 21.6959243,34.5461811 C21.4308306,33.249873 22.2216917,31.971493 23.5,31.63 L52.64,25.55 C53.986524,25.2792772 55.2992881,26.1455229 55.58,27.49 L55.57,27.5 Z M48.34,38.76 C48.4879455,39.4156977 48.3656134,40.1033479 48.0006062,40.667792 C47.635599,41.2322361 47.0586718,41.6259148 46.4,41.76 L26.4,45.92 C25.0902538,46.1077615 23.861018,45.2424893 23.5959243,43.9461811 C23.3308306,42.649873 24.1216917,41.371493 25.4,41.03 L45.4,36.87 C46.7307458,36.5965188 48.0363231,37.4358185 48.34,38.76 L48.34,38.76 Z M98.8,54.76 L94.22,76.76 C93.7031654,79.2373079 92.2232145,81.4077613 90.1058342,82.793717 C87.988454,84.1796727 85.4071573,84.6675559 82.93,84.15 L81.93,83.94 L80.84,89.19 C80.4920099,90.8555453 79.1756629,92.1478762 77.5039932,92.4651434 C75.8323235,92.7824106 74.1340211,92.0622316 73.2,90.64 L66.74,80.7 L49.61,77.13 C44.454557,76.0487995 41.1480943,70.9973836 42.22,65.84 C42.3517725,64.9208102 42.9821609,64.1503876 43.8570761,63.8392649 C44.7319912,63.5281421 45.7072671,63.7275851 46.3898014,64.3572046 C47.0723356,64.9868242 47.3496623,65.9428736 47.11,66.84 C46.6048542,69.2938176 48.178373,71.6943277 50.63,72.21 L68.77,76 C69.4190699,76.1361777 69.9874331,76.524679 70.35,77.08 L76.35,86.21 L77.56,80.39 C77.6940852,79.7313282 78.0877639,79.154401 78.652208,78.7893938 C79.2166521,78.4243866 79.9043023,78.3020545 80.56,78.45 L84.01,79.17 C85.1888931,79.4153876 86.4169814,79.1823797 87.4240671,78.5222416 C88.4311528,77.8621035 89.1347296,76.8289175 89.38,75.65 L93.96,53.65 C94.2053876,52.4711069 93.9723797,51.2430186 93.3122416,50.2359329 C92.6521035,49.2288472 91.6189175,48.5252704 90.44,48.28 L83.1,46.81 C81.8216917,46.468507 81.0308306,45.190127 81.2959243,43.8938189 C81.561018,42.5975107 82.7902538,41.7322385 84.1,41.92 L91.38,43.44 C96.5428943,44.5073359 99.8642165,49.5564618 98.8,54.72 L98.8,54.76 Z" id="Shape" sketch:type="MSShapeGroup"></path>
            <g id="Group" transform="translate(70.500000, 60.500000) rotate(-266.000000) translate(-70.500000, -60.500000) translate(58.000000, 48.000000)" stroke="#000000" stroke-width="2" sketch:type="MSShapeGroup">
                <path d="M14.4789579,-1.42108547e-14 L14.0280561,-1.42108547e-14 L11.0220441,-1.42108547e-14 L10.6212425,-1.42108547e-14 L10.5210421,0.400801603 L9.91983968,3.65731463 C9.26853707,3.85771543 8.61723447,4.10821643 8.06613226,4.45891784 L5.36072144,2.55511022 L5.01002004,2.30460922 L4.70941884,2.60521042 L2.60521042,4.70941884 L2.30460922,5.01002004 L2.55511022,5.36072144 L4.45891784,8.06613226 C4.10821643,8.66733467 3.90781563,9.31863727 3.70741483,9.96993988 L0.400801603,10.5210421 L-3.55271368e-15,10.5210421 L-3.55271368e-15,10.9218437 L-3.55271368e-15,13.9278557 L-3.55271368e-15,14.3787575 L0.400801603,14.4789579 L3.70741483,15.0801603 C3.90781563,15.7314629 4.15831663,16.3326653 4.50901804,16.9338677 L2.60521042,19.6893788 L2.35470942,20.0400802 L2.65531062,20.3406814 L4.75951904,22.4448898 L5.06012024,22.745491 L5.41082164,22.49499 L8.11623246,20.5410822 C8.71743487,20.8416834 9.31863727,21.1422846 9.96993988,21.2925852 L10.5711423,24.5991984 L10.6713427,25 L11.0220441,25 L14.0280561,25 L14.4789579,25 L14.5290581,24.5991984 L15.0801603,21.2925852 C15.7314629,21.0921844 16.3326653,20.8416834 16.9338677,20.490982 L19.6893788,22.3947896 L20.0400802,22.6452906 L20.3406814,22.3446894 L22.4448898,20.240481 L22.745491,19.9398798 L22.49499,19.5891784 L20.5410822,16.9338677 C20.8917836,16.3326653 21.0921844,15.7314629 21.2925852,15.0801603 L24.5991984,14.4789579 L25,14.3787575 L25,13.9779559 L25,10.9719439 L25,10.5711423 L24.5991984,10.5210421 L21.2925852,9.96993988 C21.0921844,9.31863727 20.8416834,8.66733467 20.5410822,8.11623246 L22.4448898,5.41082164 L22.6953908,5.06012024 L22.3947896,4.75951904 L20.2905812,2.65531062 L20.0400802,2.30460922 L19.6893788,2.55511022 L16.9839679,4.45891784 C16.3827655,4.15831663 15.7815631,3.90781563 15.1302605,3.70741483 L14.5290581,0.400801603 L14.4789579,-1.42108547e-14 L14.4789579,-1.42108547e-14 Z M8.08356491,5.70166733 L8.3813021,5.55279873 C9.07602223,5.1558158 9.82036522,4.80845574 10.6143311,4.60996427 L10.9120683,4.51071854 L10.9616911,4.21298134 L11.5075427,1.13636364 L13.6413259,1.13636364 L14.1375546,4.21298134 L14.1871775,4.56034141 L14.4849146,4.65958714 C15.2788805,4.8580786 16.0232235,5.1558158 16.7179436,5.6024216 L17.0156808,5.75129019 L17.2637952,5.55279873 L19.8441842,3.76637555 L21.3328702,5.25506153 L19.4968241,7.78582771 L19.2983327,8.03394204 L19.4472013,8.33167924 C19.8441842,9.02639936 20.1419214,9.77074236 20.3404129,10.5647082 L20.4396586,10.9120683 L20.7870187,10.9616911 L23.8636364,11.4579198 L23.8636364,13.5917031 L20.7373958,14.1375546 L20.4892815,14.1375546 L20.3900357,14.4849146 C20.1915443,15.2788805 19.8938071,16.0232235 19.4472013,16.7179436 L19.2983327,17.0156808 L19.4968241,17.2637952 L21.3328702,19.7945613 L19.8441842,21.3328702 L17.2637952,19.4968241 L17.0156808,19.2983327 L16.7179436,19.4472013 C16.0232235,19.8441842 15.2788805,20.1419214 14.4849146,20.3404129 L14.1871775,20.4396586 L14.1375546,20.7373958 L13.6413259,23.8636364 L11.5075427,23.8636364 L10.9616911,20.7373958 L10.9120683,20.3900357 L10.5647082,20.3900357 C9.77074236,20.1915443 9.02639936,19.8938071 8.33167924,19.4968241 L8.08356491,19.2983327 L7.83545058,19.4968241 L5.25506153,21.3328702 L3.76637555,19.8441842 L5.6024216,17.2637952 L5.80091306,17.0156808 L5.65204446,16.7179436 C5.25506153,16.0232235 4.90770147,15.2788805 4.70921,14.4849146 L4.60996427,14.1871775 L4.31222707,14.1375546 L1.13636364,13.5917031 L1.13636364,11.4082969 L4.21298134,10.9120683 L4.56034141,10.8624454 L4.65958714,10.5150854 C4.8580786,9.72111949 5.1558158,8.9767765 5.55279873,8.28205637 L5.70166733,8.03394204 L5.50317586,7.73620484 L3.71675268,5.1558158 L5.25506153,3.66712981 L7.78582771,5.50317586 L8.08356491,5.70166733 L8.08356491,5.70166733 Z" id="Shape"></path>
                <path d="M12.5,9.09090909 C14.3549465,9.09090909 15.9090909,10.5949198 15.9090909,12.5 C15.9090909,14.4050802 14.3549465,15.9090909 12.5,15.9090909 C10.6450535,15.9090909 9.09090909,14.4050802 9.09090909,12.5 C9.09090909,10.5949198 10.5949198,9.09090909 12.5,9.09090909 L12.5,9.09090909 Z M12.5,7.95454545 C9.97474747,7.95454545 7.95454545,9.97474747 7.95454545,12.5 C7.95454545,15.0252525 9.97474747,17.0454545 12.5,17.0454545 C15.0252525,17.0454545 17.0454545,15.0252525 17.0454545,12.5 C17.0454545,9.97474747 15.0252525,7.95454545 12.5,7.95454545 L12.5,7.95454545 L12.5,7.95454545 Z" id="Shape"></path>
            </g>
        </g>
    </g>
</svg>