<?xml version="1.0" encoding="UTF-8"?>
<svg width="100px" height="115px" viewBox="0 0 100 115" version="1.1" xmlns="http://www.w3.org/2000/svg" xmlns:xlink="http://www.w3.org/1999/xlink" xmlns:sketch="http://www.bohemiancoding.com/sketch/ns">
    <title>Slice 1</title>
    <description>Created with Sketch (http://www.bohemiancoding.com/sketch)</description>
    <defs></defs>
    <g id="Page-1" stroke="none" stroke-width="1" fill="none" fill-rule="evenodd" sketch:type="MSPage">
        <g id="noun_850688_cc" sketch:type="MSLayerGroup" transform="translate(1.000000, 1.000000)" fill="#000000">
            <path d="M6.43,53 C7.07912197,56.116656 8.94009127,58.847646 11.6032921,60.591855 C14.266493,62.336064 17.5136373,62.9505287 20.63,62.3 L22.83,61.84 L24.48,69.77 C24.8781099,71.6734945 26.3875563,73.1473781 28.3,73.5 C28.596857,73.5546143 28.8981642,73.5813971 29.2,73.58 C30.8137431,73.5766455 32.3173279,72.7609508 33.2,71.41 L42.12,57.8 L65.57,52.91 C68.686656,52.260878 71.417646,50.3999087 73.161855,47.7367079 C74.906064,45.073507 75.5205287,41.8263627 74.87,38.71 L68.69,9.08 C68.040878,5.96334401 66.1799087,3.232354 63.5167079,1.48814498 C60.853507,-0.256064034 57.6063627,-0.870528729 54.49,-0.22 L9.55,9.16 C6.43334401,9.80912197 3.702354,11.6700913 1.95814498,14.3332921 C0.213935966,16.996493 -0.400528729,20.2436373 0.25,23.36 L6.43,53 Z M10.57,14.07 L55.52,4.68 C59.3028919,3.89159994 63.0090833,6.31763347 63.8,10.1 L70,39.73 C70.3748967,41.5494745 70.011178,43.4433516 68.9889522,44.994509 C67.9667263,46.5456664 66.3698385,47.6268747 64.55,48 L40.08,53.1 C39.4309301,53.2361777 38.8625669,53.624679 38.5,54.18 L29.29,68.28 L27.22,58.36 C27.0859148,57.7013282 26.6922361,57.124401 26.127792,56.7593938 C25.5633479,56.3943866 24.8756977,56.2720545 24.22,56.42 L19.57,57.42 C15.8008089,58.1835745 12.1214763,55.763431 11.33,52 L5.15,22.34 C4.76842217,20.5218505 5.12523262,18.6265882 6.14183964,17.0716672 C7.15844666,15.5167461 8.75146012,14.4297131 10.57,14.05 L10.57,14.07 Z M18.57,25.24 C18.4220545,24.5843023 18.5443866,23.8966521 18.9093938,23.332208 C19.274401,22.7677639 19.8513282,22.3740852 20.51,22.24 L49.65,16.16 C50.9597462,15.9722385 52.188982,16.8375107 52.4540757,18.1338189 C52.7191694,19.430127 51.9283083,20.708507 50.65,21.05 L21.55,27.16 C20.8943023,27.3079455 20.2066521,27.1856134 19.642208,26.8206062 C19.0777639,26.455599 18.6840852,25.8786718 18.55,25.22 L18.57,25.24 Z M54.57,27.5 C54.7179455,28.1556977 54.5956134,28.8433479 54.2306062,29.407792 C53.865599,29.9722361 53.2886718,30.3659148 52.63,30.5 L23.5,36.52 C22.1902538,36.7077615 20.961018,35.8424893 20.6959243,34.5461811 C20.4308306,33.249873 21.2216917,31.971493 22.5,31.63 L51.64,25.55 C52.986524,25.2792772 54.2992881,26.1455229 54.58,27.49 L54.57,27.5 Z M47.34,38.76 C47.4879455,39.4156977 47.3656134,40.1033479 47.0006062,40.667792 C46.635599,41.2322361 46.0586718,41.6259148 45.4,41.76 L25.4,45.92 C24.0902538,46.1077615 22.861018,45.2424893 22.5959243,43.9461811 C22.3308306,42.649873 23.1216917,41.371493 24.4,41.03 L44.4,36.87 C45.7307458,36.5965188 47.0363231,37.4358185 47.34,38.76 L47.34,38.76 Z M97.8,54.76 L93.22,76.76 C92.7031654,79.2373079 91.2232145,81.4077613 89.1058342,82.793717 C86.988454,84.1796727 84.4071573,84.6675559 81.93,84.15 L80.93,83.94 L79.84,89.19 C79.4920099,90.8555453 78.1756629,92.1478762 76.5039932,92.4651434 C74.8323235,92.7824106 73.1340211,92.0622316 72.2,90.64 L65.74,80.7 L48.61,77.13 C43.454557,76.0487995 40.1480943,70.9973836 41.22,65.84 C41.3517725,64.9208102 41.9821609,64.1503876 42.8570761,63.8392649 C43.7319912,63.5281421 44.7072671,63.7275851 45.3898014,64.3572046 C46.0723356,64.9868242 46.3496623,65.9428736 46.11,66.84 C45.6048542,69.2938176 47.178373,71.6943277 49.63,72.21 L67.77,76 C68.4190699,76.1361777 68.9874331,76.524679 69.35,77.08 L75.35,86.21 L76.56,80.39 C76.6940852,79.7313282 77.0877639,79.154401 77.652208,78.7893938 C78.2166521,78.4243866 78.9043023,78.3020545 79.56,78.45 L83.01,79.17 C84.1888931,79.4153876 85.4169814,79.1823797 86.4240671,78.5222416 C87.4311528,77.8621035 88.1347296,76.8289175 88.38,75.65 L92.96,53.65 C93.2053876,52.4711069 92.9723797,51.2430186 92.3122416,50.2359329 C91.6521035,49.2288472 90.6189175,48.5252704 89.44,48.28 L82.1,46.81 C80.8216917,46.468507 80.0308306,45.190127 80.2959243,43.8938189 C80.561018,42.5975107 81.7902538,41.7322385 83.1,41.92 L90.38,43.44 C95.5428943,44.5073359 98.8642165,49.5564618 97.8,54.72 L97.8,54.76 Z" id="Shape" sketch:type="MSShapeGroup"></path>
            <g id="Group" transform="translate(69.500000, 60.500000) rotate(-266.000000) translate(-69.500000, -60.500000) translate(57.000000, 48.000000)" stroke="#000000" stroke-width="2" sketch:type="MSShapeGroup">
                <path d="M14.4789579,-1.42108547e-14 L14.0280561,-1.42108547e-14 L11.0220441,-1.42108547e-14 L10.6212425,-1.42108547e-14 L10.5210421,0.400801603 L9.91983968,3.65731463 C9.26853707,3.85771543 8.61723447,4.10821643 8.06613226,4.45891784 L5.36072144,2.55511022 L5.01002004,2.30460922 L4.70941884,2.60521042 L2.60521042,4.70941884 L2.30460922,5.01002004 L2.55511022,5.36072144 L4.45891784,8.06613226 C4.10821643,8.66733467 3.90781563,9.31863727 3.70741483,9.96993988 L0.400801603,10.5210421 L-3.55271368e-15,10.5210421 L-3.55271368e-15,10.9218437 L-3.55271368e-15,13.9278557 L-3.55271368e-15,14.3787575 L0.400801603,14.4789579 L3.70741483,15.0801603 C3.90781563,15.7314629 4.15831663,16.3326653 4.50901804,16.9338677 L2.60521042,19.6893788 L2.35470942,20.0400802 L2.65531062,20.3406814 L4.75951904,22.4448898 L5.06012024,22.745491 L5.41082164,22.49499 L8.11623246,20.5410822 C8.71743487,20.8416834 9.31863727,21.1422846 9.96993988,21.2925852 L10.5711423,24.5991984 L10.6713427,25 L11.0220441,25 L14.0280561,25 L14.4789579,25 L14.5290581,24.5991984 L15.0801603,21.2925852 C15.7314629,21.0921844 16.3326653,20.8416834 16.9338677,20.490982 L19.6893788,22.3947896 L20.0400802,22.6452906 L20.3406814,22.3446894 L22.4448898,20.240481 L22.745491,19.9398798 L22.49499,19.5891784 L20.5410822,16.9338677 C20.8917836,16.3326653 21.0921844,15.7314629 21.2925852,15.0801603 L24.5991984,14.4789579 L25,14.3787575 L25,13.9779559 L25,10.9719439 L25,10.5711423 L24.5991984,10.5210421 L21.2925852,9.96993988 C21.0921844,9.31863727 20.8416834,8.66733467 20.5410822,8.11623246 L22.4448898,5.41082164 L22.6953908,5.06012024 L22.3947896,4.75951904 L20.2905812,2.65531062 L20.0400802,2.30460922 L19.6893788,2.55511022 L16.9839679,4.45891784 C16.3827655,4.15831663 15.7815631,3.90781563 15.1302605,3.70741483 L14.5290581,0.400801603 L14.4789579,-1.42108547e-14 L14.4789579,-1.42108547e-14 Z M8.08356491,5.70166733 L8.3813021,5.55279873 C9.07602223,5.1558158 9.82036522,4.80845574 10.6143311,4.60996427 L10.9120683,4.51071854 L10.9616911,4.21298134 L11.5075427,1.13636364 L13.6413259,1.13636364 L14.1375546,4.21298134 L14.1871775,4.56034141 L14.4849146,4.65958714 C15.2788805,4.8580786 16.0232235,5.1558158 16.7179436,5.6024216 L17.0156808,5.75129019 L17.2637952,5.55279873 L19.8441842,3.76637555 L21.3328702,5.25506153 L19.4968241,7.78582771 L19.2983327,8.03394204 L19.4472013,8.33167924 C19.8441842,9.02639936 20.1419214,9.77074236 20.3404129,10.5647082 L20.4396586,10.9120683 L20.7870187,10.9616911 L23.8636364,11.4579198 L23.8636364,13.5917031 L20.7373958,14.1375546 L20.4892815,14.1375546 L20.3900357,14.4849146 C20.1915443,15.2788805 19.8938071,16.0232235 19.4472013,16.7179436 L19.2983327,17.0156808 L19.4968241,17.2637952 L21.3328702,19.7945613 L19.8441842,21.3328702 L17.2637952,19.4968241 L17.0156808,19.2983327 L16.7179436,19.4472013 C16.0232235,19.8441842 15.2788805,20.1419214 14.4849146,20.3404129 L14.1871775,20.4396586 L14.1375546,20.7373958 L13.6413259,23.8636364 L11.5075427,23.8636364 L10.9616911,20.7373958 L10.9120683,20.3900357 L10.5647082,20.3900357 C9.77074236,20.1915443 9.02639936,19.8938071 8.33167924,19.4968241 L8.08356491,19.2983327 L7.83545058,19.4968241 L5.25506153,21.3328702 L3.76637555,19.8441842 L5.6024216,17.2637952 L5.80091306,17.0156808 L5.65204446,16.7179436 C5.25506153,16.0232235 4.90770147,15.2788805 4.70921,14.4849146 L4.60996427,14.1871775 L4.31222707,14.1375546 L1.13636364,13.5917031 L1.13636364,11.4082969 L4.21298134,10.9120683 L4.56034141,10.8624454 L4.65958714,10.5150854 C4.8580786,9.72111949 5.1558158,8.9767765 5.55279873,8.28205637 L5.70166733,8.03394204 L5.50317586,7.73620484 L3.71675268,5.1558158 L5.25506153,3.66712981 L7.78582771,5.50317586 L8.08356491,5.70166733 L8.08356491,5.70166733 Z" id="Shape"></path>
                <path d="M12.5,9.09090909 C14.3549465,9.09090909 15.9090909,10.5949198 15.9090909,12.5 C15.9090909,14.4050802 14.3549465,15.9090909 12.5,15.9090909 C10.6450535,15.9090909 9.09090909,14.4050802 9.09090909,12.5 C9.09090909,10.5949198 10.5949198,9.09090909 12.5,9.09090909 L12.5,9.09090909 Z M12.5,7.95454545 C9.97474747,7.95454545 7.95454545,9.97474747 7.95454545,12.5 C7.95454545,15.0252525 9.97474747,17.0454545 12.5,17.0454545 C15.0252525,17.0454545 17.0454545,15.0252525 17.0454545,12.5 C17.0454545,9.97474747 15.0252525,7.95454545 12.5,7.95454545 L12.5,7.95454545 L12.5,7.95454545 Z" id="Shape"></path>
            </g>
            <text id="modmsg" sketch:type="MSTextLayer" font-family="Helvetica" font-size="21" font-weight="bold">
                <tspan x="4" y="108">modmsg</tspan>
            </text>
        </g>
    </g>
</svg>