<svg xmlns="http://www.w3.org/2000/svg" data-name="Layer 1" viewBox="0 0 100 125" x="0px" y="0px"><title>Artboard 8</title><path d="M7.43,57a12,12,0,0,0,14.2,9.3l2.2-.46,1.65,7.93A4.79,4.79,0,0,0,29.3,77.5a4.85,4.85,0,0,0,.9.08,4.79,4.79,0,0,0,4-2.17L43.12,61.8l23.45-4.89a12,12,0,0,0,9.3-14.2L69.69,13.08a12,12,0,0,0-14.2-9.3L10.55,13.16a12,12,0,0,0-9.3,14.2Zm4.14-38.93L56.52,8.68A7,7,0,0,1,64.8,14.1L71,43.73A7,7,0,0,1,65.55,52l-24.47,5.1a2.5,2.5,0,0,0-1.58,1.08L30.29,72.28l-2.07-9.92a2.5,2.5,0,0,0-3-1.94l-4.65,1A7,7,0,0,1,12.33,56L6.15,26.34A7,7,0,0,1,11.57,18.05Zm8,11.17a2.5,2.5,0,0,1,1.94-3l29.14-6.08a2.5,2.5,0,0,1,1,4.89L22.55,31.16a2.5,2.5,0,0,1-3-1.94Zm36,2.26a2.5,2.5,0,0,1-1.94,3L24.5,40.52a2.5,2.5,0,0,1-1-4.89l29.14-6.08A2.5,2.5,0,0,1,55.58,31.49ZM48.34,42.76a2.5,2.5,0,0,1-1.94,3l-20,4.16a2.5,2.5,0,0,1-1-4.89l20-4.16A2.5,2.5,0,0,1,48.34,42.76Zm50.46,16-4.58,22a9.54,9.54,0,0,1-11.29,7.39l-1-.21-1.09,5.25a4.21,4.21,0,0,1-7.64,1.45L66.74,84.7,49.61,81.13a9.55,9.55,0,0,1-7.39-11.29,2.5,2.5,0,1,1,4.89,1,4.55,4.55,0,0,0,3.52,5.37L68.77,80a2.5,2.5,0,0,1,1.58,1.08l6,9.13,1.21-5.82a2.5,2.5,0,0,1,3-1.94l3.45.72a4.54,4.54,0,0,0,5.37-3.52l4.58-22a4.54,4.54,0,0,0-3.52-5.37L83.1,50.81a2.5,2.5,0,0,1,1-4.89l7.28,1.52A9.55,9.55,0,0,1,98.8,58.72Z"/><text x="0" y="115" fill="#000000" font-size="5px" font-weight="bold" font-family="'Helvetica Neue', Helvetica, Arial-Unicode, Arial, Sans-serif">Created by Gregor Cresnar</text><text x="0" y="120" fill="#000000" font-size="5px" font-weight="bold" font-family="'Helvetica Neue', Helvetica, Arial-Unicode, Arial, Sans-serif">from the Noun Project</text></svg>